<?xml version="1.0" encoding="UTF-8" standalone="no"?>
<svg
   xmlns:dc="http://purl.org/dc/elements/1.1/"
   xmlns:cc="http://creativecommons.org/ns#"
   xmlns:rdf="http://www.w3.org/1999/02/22-rdf-syntax-ns#"
   xmlns:svg="http://www.w3.org/2000/svg"
   xmlns="http://www.w3.org/2000/svg"
   id="svg1429"
   version="1.1"
   viewBox="0 0 16.933333 16.933333"
   height="64"
   width="64">
  <defs
     id="defs1423" />
  <metadata
     id="metadata1426">
    <rdf:RDF>
      <cc:Work
         rdf:about="">
        <dc:format>image/svg+xml</dc:format>
        <dc:type
           rdf:resource="http://purl.org/dc/dcmitype/StillImage" />
        <dc:title></dc:title>
      </cc:Work>
    </rdf:RDF>
  </metadata>
  <g
     transform="translate(0,-280.06667)"
     id="layer1">
    <path
       style="fill:#0080ff;fill-opacity:1;stroke-width:0.03413979"
       id="path3780"
       d="m 8.4822,280.06667 c 2.262409,0.004 4.316532,0.89558 5.833091,2.34489 l 1.219302,-1.21931 c 0.516193,-0.51615 1.39874,-0.15059 1.39874,0.57939 v 4.57675 c 0,0.45252 -0.366831,0.81935 -0.819355,0.81935 h -4.576746 c -0.729977,0 -1.095545,-0.88254 -0.579386,-1.39874 l 1.425337,-1.42534 c -1.05369,-0.9866 -2.4171315,-1.53311 -3.8656487,-1.54561 -3.1544475,-0.0272 -5.8134245,2.52556 -5.7861473,5.78472 0.02588,3.09173 2.5324221,5.68605 5.7352802,5.68605 1.4040657,0 2.7310798,-0.50111 3.7768488,-1.41871 0.161925,-0.14206 0.406469,-0.13342 0.5588,0.0189 l 1.354053,1.35406 c 0.166329,0.16632 0.158102,0.43749 -0.01645,0.59515 C 12.638617,296.17426 10.649086,297 8.4666672,297 3.790676,297 3.3550239e-5,293.20936 0,288.5334 c -3.4839761e-5,-4.67063 3.8115703,-8.4751 8.4822,-8.46673 z" />
  </g>
</svg>
